<?xml version="1.0" standalone="no"?>
<!DOCTYPE svg PUBLIC "-//W3C//DTD SVG 20010904//EN"
 "http://www.w3.org/TR/2001/REC-SVG-20010904/DTD/svg10.dtd">
<svg version="1.0" xmlns="http://www.w3.org/2000/svg"
 width="512.000000pt" height="512.000000pt" viewBox="0 0 512.000000 512.000000"
 preserveAspectRatio="xMidYMid meet">
<metadata>
Created by potrace 1.11, written by Peter Selinger 2001-2013
</metadata>
<g transform="translate(0.000000,512.000000) scale(0.100000,-0.100000)"
fill="#000000" stroke="none">
<path d="M0 2560 l0 -2560 2560 0 2560 0 0 2560 0 2560 -2560 0 -2560 0 0
-2560z m2678 1835 c210 -50 385 -239 415 -450 21 -145 -15 -281 -106 -400
-105 -139 -257 -215 -427 -215 -170 0 -322 76 -427 215 -86 113 -121 232 -110
369 12 134 57 227 161 332 138 138 314 191 494 149z m-1388 -1091 c427 -56
832 -236 1168 -518 l102 -87 103 86 c400 337 845 508 1405 541 l112 7 0 -992
0 -991 -83 0 c-45 0 -140 -7 -211 -15 -475 -56 -896 -244 -1259 -564 -32 -28
-62 -51 -66 -51 -5 0 -47 33 -94 73 -359 308 -768 488 -1233 542 -71 8 -166
15 -211 15 l-83 0 0 991 0 992 118 -7 c64 -4 169 -14 232 -22z"/>
</g>
</svg>
